<svg width="149" height="37" viewBox="0 0 149 37" fill="none" xmlns="http://www.w3.org/2000/svg">
<g id="Group 19">
<g id="Klyra">
<path id="Vector" d="M133.908 31.2646C131.645 31.2646 129.795 30.7189 128.358 29.6276C126.947 28.5097 126.242 27.059 126.242 25.2756C126.242 23.652 126.828 22.1481 127.999 20.764C129.197 19.3798 130.847 18.2087 132.95 17.2504C135.052 16.2656 137.461 15.5868 140.176 15.2142C139.218 12.8719 137.9 11.7007 136.224 11.7007C135.212 11.7007 133.908 12.0866 132.311 12.8586C130.714 13.6305 129.09 14.6419 127.44 15.8929L126.242 11.9003C130.208 9.63784 133.961 8.50659 137.501 8.50659C140.269 8.50659 142.492 9.26519 144.169 10.7824C145.846 12.273 147.07 14.6685 147.842 17.9691C148.614 21.2431 149 25.5817 149 30.9851C148.494 31.0117 147.589 31.0383 146.285 31.0649C145.007 31.1182 143.623 31.1448 142.133 31.1448C142.133 30.293 142.119 29.4546 142.093 28.6294C139.351 30.3862 136.623 31.2646 133.908 31.2646ZM132.83 24.9961C132.83 25.8213 133.149 26.4734 133.788 26.9525C134.454 27.4316 135.332 27.6712 136.423 27.6712C138.34 27.6712 140.19 26.8461 141.973 25.1958C141.813 22.3743 141.507 19.992 141.055 18.049C140.017 18.2619 139.005 18.6079 138.02 19.0871C137.062 19.5662 136.184 20.1384 135.385 20.8039C134.613 21.4427 133.988 22.1348 133.509 22.88C133.056 23.5987 132.83 24.3041 132.83 24.9961Z" fill="#23CE6B"/>
<path id="Vector_2" d="M110.763 31.1448C109.832 31.1448 108.767 31.1182 107.569 31.0649C106.398 31.0383 105.307 31.0117 104.295 30.9851C104.268 30.1866 104.242 29.042 104.215 27.5514C104.189 26.0608 104.162 24.3307 104.135 22.361C104.135 20.3647 104.122 18.2353 104.095 15.9728C104.095 13.6837 104.095 11.3547 104.095 8.9857C104.681 8.95909 105.4 8.93247 106.251 8.90585C107.103 8.87924 107.955 8.86592 108.807 8.86592C109.658 8.83931 110.377 8.826 110.963 8.826C110.963 9.59791 110.963 10.3698 110.963 11.1417C112.001 10.3166 113.066 9.67776 114.157 9.22526C115.275 8.74615 116.353 8.50659 117.391 8.50659C118.748 8.50659 119.986 8.87924 121.104 9.62453C122.222 10.3432 123.127 11.328 123.819 12.5791C124.538 13.8301 124.95 15.2408 125.057 16.8113C123.992 17.1573 122.927 17.4634 121.863 17.7296C120.798 17.9957 119.786 18.2087 118.828 18.3684C118.828 17.1706 118.669 16.066 118.349 15.0545C118.056 14.043 117.657 13.2312 117.151 12.619C116.646 12.0068 116.087 11.7007 115.474 11.7007C114.756 11.7007 113.957 12.1399 113.079 13.0183C112.2 13.8966 111.495 14.9746 110.963 16.2523C110.936 19.6327 110.91 22.6538 110.883 25.3156C110.856 27.9507 110.816 29.8938 110.763 31.1448Z" fill="#23CE6B"/>
<path id="Vector_3" d="M80.1241 36.3351L79.7248 32.582C81.1355 32.5022 82.3999 32.3158 83.5178 32.0231C84.6623 31.7569 85.7004 31.331 86.632 30.7454C85.5141 28.5095 84.3829 26.1273 83.2383 23.5986C82.0938 21.0699 81.0024 18.5812 79.9644 16.1324C78.9529 13.657 78.0745 11.3945 77.3292 9.34493C78.2875 9.18523 79.4852 9.02552 80.9226 8.86582C82.3599 8.70611 83.7707 8.57302 85.1548 8.46655C85.8202 10.5161 86.6986 12.9782 87.7899 15.8529C88.8812 18.7276 90.0657 21.7487 91.3433 24.9162C92.2217 23.1328 93.0602 20.9102 93.8587 18.2485C94.6572 15.5867 95.5223 12.3793 96.4539 8.62626L101.285 9.18523C99.9807 13.9764 98.6099 18.0755 97.1726 21.4825C95.7618 24.8629 94.218 27.6312 92.5411 29.7872C90.8908 31.9432 89.0409 33.5403 86.9914 34.5783C84.9418 35.6164 82.6527 36.202 80.1241 36.3351Z" fill="#23CE6B"/>
<path id="Vector_4" d="M74.2134 0.840698C74.1602 2.3579 74.1202 3.84848 74.0936 5.31244C74.067 6.7764 74.0537 8.1339 74.0537 9.38492C74.0537 13.5905 74.1735 17.0375 74.413 19.7258C74.6792 22.3876 75.0785 24.4371 75.6108 25.8745C76.1432 27.2852 76.8485 28.2168 77.7269 28.6693L74.9321 31.8634C73.4947 31.7037 72.2836 31.2379 71.2988 30.466C70.3406 29.6675 69.5687 28.483 68.9831 26.9126C68.3975 25.3155 67.9716 23.2526 67.7054 20.724C67.4659 18.1953 67.3461 15.1077 67.3461 11.4611C67.3461 9.94389 67.3594 8.2936 67.386 6.51023C67.4393 4.70024 67.4925 2.86363 67.5457 1.0004C68.3176 0.947169 69.2359 0.907242 70.3006 0.880625C71.3653 0.854008 72.6696 0.840698 74.2134 0.840698Z" fill="#23CE6B"/>
<path id="Vector_5" d="M39 31.2246C39 30.1865 39 28.8157 39 27.1122C39 25.4087 39 23.5321 39 21.4826C39.0266 19.433 39.0399 17.3436 39.0399 15.2142C39.0399 13.0848 39.0399 11.0485 39.0399 9.10544C39.0665 7.16236 39.0932 5.45884 39.1198 3.99487C39.1464 2.53091 39.173 1.4529 39.1996 0.760844L46.3864 1.0004C46.3065 3.1298 46.24 5.53869 46.1867 8.22706C46.1601 10.8888 46.1335 13.6038 46.1069 16.372C48.183 14.0297 50.206 11.5409 52.1757 8.90581C54.1454 6.27067 56.1417 3.40929 58.1646 0.321655L63.5946 1.51945C61.2522 4.68693 58.5639 7.92096 55.5295 11.2215C56.5676 13.0315 57.6323 15.0145 58.7236 17.1705C59.8149 19.2999 60.8663 21.5092 61.8778 23.7983C62.9158 26.0608 63.8741 28.31 64.7524 30.5458C63.3417 30.7854 61.9443 30.9584 60.5602 31.0649C59.1761 31.198 57.7387 31.2645 56.2481 31.2645C55.8223 29.8804 55.3032 28.3632 54.691 26.7129C54.1054 25.036 53.4533 23.3192 52.7346 21.5624C52.016 19.8057 51.284 18.0888 50.5387 16.4119C49.1013 17.8493 47.6108 19.2866 46.067 20.724C46.0403 22.5872 46.027 24.3839 46.027 26.114C46.027 27.8442 46.027 29.4678 46.027 30.985L39 31.2246Z" fill="#23CE6B"/>
</g>
<path id="Star 1" d="M15.5 1L20.4321 11.5679L31 16.5L20.4321 21.4321L15.5 32L10.5679 21.4321L0 16.5L10.5679 11.5679L15.5 1Z" fill="#A846A0"/>
</g>
</svg>
